<svg width="23" height="17" viewBox="0 0 23 17" fill="none" xmlns="http://www.w3.org/2000/svg">
<path d="M15.1189 16.2383V14.3459C15.1189 13.3421 14.7583 12.3794 14.1163 11.6696C13.4744 10.9598 12.6037 10.561 11.6959 10.561H4.84979C3.94195 10.561 3.07128 10.9598 2.42934 11.6696C1.7874 12.3794 1.42676 13.3421 1.42676 14.3459V16.2383" stroke="white" stroke-linecap="round" stroke-linejoin="round"/>
<path d="M8.73992 8.45136C10.6765 8.45136 12.2464 6.78332 12.2464 4.72568C12.2464 2.66804 10.6765 1 8.73992 1C6.80332 1 5.2334 2.66804 5.2334 4.72568C5.2334 6.78332 6.80332 8.45136 8.73992 8.45136Z" stroke="white" stroke-linecap="round" stroke-linejoin="round"/>
<path d="M17.0773 11.0671L14.1162 8.00706L15.1526 6.93604L17.0773 8.92508L21.963 3.87598L22.9994 4.947L20.0383 8.00706L17.0773 11.0671Z" fill="white"/>
</svg>
